<svg version="1.0" xmlns="http://www.w3.org/2000/svg"
width="18" height="18" viewBox="0 0 1009.000000 1280.000000"
    preserveAspectRatio="xMidYMid meet">
    <metadata>
        Created by potrace 1.15, written by Peter Selinger 2001-2017
    </metadata>
    <g transform="translate(0.000000,1280.000000) scale(0.100000,-0.100000)"
        fill="#000000" stroke="none">
        <path
            d="M5265 12794 c-538 -39 -961 -137 -1410 -326 -66 -27 -121 -51 -123
-52 -2 -2 105 -319 153 -453 3 -8 30 0 87 26 247 115 605 222 923 276 363 61
878 61 1238 0 877 -148 1670 -561 2322 -1210 534 -531 944 -1206 1171 -1930
20 -66 41 -124 45 -129 5 -6 401 116 417 129 5 5 -78 254 -135 405 -220 583
-535 1116 -939 1590 -130 152 -410 430 -559 555 -328 275 -632 474 -1000 655
-495 244 -954 379 -1510 445 -123 14 -571 27 -680 19z" />
        <path
            d="M5265 11533 c-278 -16 -601 -78 -846 -161 -133 -46 -309 -123 -309
-135 0 -25 139 -412 147 -410 4 1 49 20 98 41 124 54 284 106 450 147 1016
249 2065 -66 2820 -846 385 -398 659 -858 845 -1421 23 -71 44 -128 48 -128 3
0 96 30 207 66 l202 66 -39 122 c-319 981 -969 1774 -1843 2250 -544 296
-1192 445 -1780 409z" />
        <path
            d="M5265 10383 c-195 -16 -356 -44 -511 -89 -107 -31 -291 -102 -300
-115 -3 -5 24 -99 61 -208 l66 -199 107 44 c206 84 415 123 697 131 443 12
803 -93 1145 -335 111 -78 305 -263 397 -377 189 -234 360 -547 478 -870 21
-59 37 -89 46 -87 8 1 102 31 209 66 l195 63 -1 29 c-2 47 -100 298 -179 459
-355 719 -1004 1250 -1740 1425 -238 56 -479 79 -670 63z" />
        <path
            d="M56 9698 c-21 -100 -46 -417 -52 -663 -25 -957 192 -1927 626 -2795
524 -1048 1328 -1900 2351 -2490 173 -101 534 -276 724 -354 1366 -554 2879
-581 4265 -76 700 255 1337 636 1919 1147 l43 38 -248 132 c-3531 1866 -4465
2362 -4466 2367 0 4 55 112 122 241 121 233 122 235 159 241 330 55 562 399
486 722 -42 180 -168 317 -334 366 -69 20 -180 20 -256 1 -192 -51 -367 -231
-420 -435 -32 -124 -19 -281 31 -382 l24 -46 -126 -241 -126 -241 -72 39
c-126 69 -4616 2442 -4631 2447 -9 4 -16 -2 -19 -18z m930 -1214 c231 -129
422 -238 426 -242 3 -4 11 -108 18 -232 37 -754 163 -1350 438 -2065 70 -184
200 -494 336 -805 l85 -195 -144 148 c-929 950 -1453 2039 -1559 3242 -13 145
-25 385 -20 385 1 0 190 -106 420 -236z" />
        <path
            d="M1945 3273 c-475 -1523 -743 -2241 -1135 -3049 l-109 -224 2507 6
c1379 4 2508 8 2510 9 1 1 -57 123 -130 271 -305 617 -603 1334 -830 2004
l-53 155 -157 31 c-948 189 -1741 559 -2413 1123 -33 28 -63 51 -66 51 -3 0
-59 -170 -124 -377z m460 -426 c88 -61 163 -113 168 -117 16 -14 -124 -446
-233 -720 -219 -547 -467 -1006 -749 -1380 -47 -63 -141 -171 -209 -240 l-122
-125 19 50 c11 28 86 212 166 410 304 747 516 1352 710 2025 31 107 58 201 60
208 6 16 -7 24 190 -111z" />
    </g>
</svg>